<svg version="1.1" id="Layer_1" xmlns="http://www.w3.org/2000/svg" xmlns:xlink="http://www.w3.org/1999/xlink" x="0px" y="0px"
	 width="100%" viewBox="0 0 219 70" enable-background="new 0 0 219 70" xml:space="preserve">
<path fill="#FEFEFE" opacity="1.000000" stroke="none" 
	d="
M182.000000,71.000000 
	C121.333351,71.000000 61.166702,71.000000 1.000040,71.000000 
	C1.000027,47.666691 1.000027,24.333384 1.000013,1.000056 
	C73.999954,1.000037 146.999908,1.000037 219.999908,1.000019 
	C219.999939,24.333281 219.999939,47.666561 219.999969,70.999924 
	C207.500000,71.000000 195.000000,71.000000 182.000000,71.000000 
M65.471336,41.807762 
	C65.770302,41.958771 66.069275,42.109779 66.418793,43.159416 
	C66.418793,48.382080 66.418793,53.604744 66.418793,58.804771 
	C68.779892,58.804771 70.515358,58.804771 72.393341,58.804771 
	C72.393341,46.469486 72.393341,34.420845 72.393341,22.205980 
	C70.154015,22.205980 68.112549,22.205980 66.272957,22.205980 
	C66.272957,28.334143 66.272957,34.163570 65.731247,40.291103 
	C65.499474,40.866085 65.267700,41.441067 64.823601,42.159397 
	C64.823601,42.159397 64.758186,42.379013 64.758186,42.379013 
	C64.758186,42.379013 64.990005,41.969124 65.471336,41.807762 
M139.664780,43.068352 
	C140.033081,43.050476 140.401398,43.032600 140.961182,43.835144 
	C141.709091,47.994438 144.916809,45.229412 147.575699,46.045612 
	C148.399384,45.956234 149.223068,45.866856 150.046738,45.777477 
	C150.037247,45.555199 150.027756,45.332924 150.018265,45.110649 
	C149.107513,45.054577 148.196762,44.998505 147.045731,44.040340 
	C147.045731,31.682861 147.045731,19.325382 147.045731,7.008280 
	C144.669266,7.008280 143.057617,7.008280 140.772110,7.008280 
	C140.772110,13.134072 140.772110,19.059845 140.206589,24.953466 
	C139.829330,24.937960 139.452087,24.922453 138.832474,24.492060 
	C138.627899,24.228647 138.364716,24.052998 137.933411,23.334801 
	C136.708237,22.715691 135.483078,22.096581 134.257904,21.477470 
	C134.095581,21.903650 133.933243,22.329830 133.770920,22.756010 
	C135.169556,23.184414 136.568176,23.612816 138.162918,24.480124 
	C138.346130,24.756662 138.591446,24.957253 138.935242,25.775593 
	C139.484497,26.858278 140.033737,27.940962 140.791168,29.908840 
	C140.743896,32.932663 140.696609,35.956482 139.999741,39.146503 
	C139.623306,40.384869 139.246872,41.623238 138.273148,42.995953 
	C137.584351,43.590405 136.895569,44.184860 136.206772,44.779312 
	C136.497086,45.054016 136.787399,45.328724 137.077713,45.603428 
	C137.756241,44.772560 138.434769,43.941689 139.664780,43.068352 
M161.062195,31.164330 
	C161.518768,28.354614 161.975342,25.544899 162.460770,22.557701 
	C156.591919,24.191357 153.834702,28.366154 154.129791,34.611710 
	C154.422607,40.809093 157.779282,44.684608 162.938828,45.574261 
	C162.386673,41.530712 161.806091,37.279018 162.080383,33.067951 
	C164.408005,33.067951 166.735641,33.067951 169.063263,33.067951 
	C169.056549,32.700733 169.049835,32.333515 169.043121,31.966297 
	C166.460648,31.966297 163.878174,31.966297 161.062195,31.164330 
M39.902706,40.371910 
	C39.901451,36.554214 39.992424,32.733738 39.877541,28.919462 
	C39.700771,23.050055 37.755547,21.543427 32.684799,22.284285 
	C32.684799,30.183418 32.684799,38.001774 32.684799,45.853420 
	C35.567062,45.853420 37.505432,45.853420 39.902699,45.853420 
	C39.902699,44.239128 39.902699,42.786400 39.902706,40.371910 
M193.748184,32.572430 
	C192.400269,29.044947 191.052338,25.517462 189.762039,22.140755 
	C187.409241,22.140755 185.456055,22.140755 183.120087,22.140755 
	C186.576904,30.458355 189.898407,38.450386 193.308640,46.655903 
	C198.682114,41.891666 195.533508,37.596138 193.748184,32.572430 
M126.918465,44.722439 
	C128.398468,45.231857 129.878479,45.741280 131.905869,46.439114 
	C127.418701,37.913280 127.615768,30.054066 131.493439,21.898029 
	C126.569908,22.161907 123.843475,24.953205 122.559456,28.901018 
	C120.690811,34.646271 121.337280,40.063782 126.918465,44.722439 
M90.838058,30.549345 
	C89.716354,27.667295 88.594650,24.785246 87.589165,22.201813 
	C85.164482,22.201813 83.254684,22.201813 80.963188,22.201813 
	C84.441803,30.535568 87.762398,38.490768 91.255737,46.859802 
	C96.349113,40.928726 92.610786,36.169853 90.838058,30.549345 
M54.368309,38.730221 
	C54.753071,33.183624 55.137833,27.637028 55.510540,22.264248 
	C50.122368,23.108437 46.477596,28.431202 47.225258,35.529549 
	C47.877617,41.723042 51.738739,45.683342 56.690090,45.490704 
	C55.988911,43.551079 55.266659,41.553162 54.368309,38.730221 
M17.824371,42.395805 
	C17.824371,43.497402 17.824371,44.598995 17.824371,45.628365 
	C20.055201,45.628365 21.910746,45.628365 23.575104,45.628365 
	C23.575104,37.532887 23.575104,29.830675 23.575104,21.888849 
	C21.437252,21.985229 19.700588,22.063524 17.824594,22.148102 
	C17.824594,28.858007 17.824594,35.140003 17.824371,42.395805 
M111.958450,38.707916 
	C111.167915,40.560165 110.104744,42.369411 109.800484,44.298355 
	C109.733940,44.720280 112.507156,46.261974 113.730278,46.026970 
	C114.959587,45.790779 116.974625,43.329098 116.760864,42.972622 
	C115.747459,41.282501 114.089821,39.978672 111.958450,38.707916 
M170.812744,29.885698 
	C171.848907,34.613258 174.939835,31.230881 177.157318,31.932737 
	C176.423706,24.881172 173.841324,22.207354 168.937866,22.373766 
	C169.522079,24.507711 170.137863,26.756983 170.812744,29.885698 
M59.706596,21.260542 
	C59.423882,21.725786 59.141167,22.191031 58.858456,22.656277 
	C59.618137,22.655558 60.377815,22.654837 61.137497,22.654118 
	C60.855865,22.188080 60.574234,21.722042 59.706596,21.260542 
M139.024536,6.152004 
	C138.593842,6.256930 138.163132,6.361856 137.732437,6.466788 
	C137.828354,6.595272 137.941788,6.843528 138.017334,6.832489 
	C138.455444,6.768478 138.884628,6.643414 139.024536,6.152004 
M63.103973,44.299450 
	C63.017845,44.425968 62.931717,44.552490 62.845589,44.679008 
	C62.985794,44.627762 63.125999,44.576515 63.103973,44.299450 
M14.911223,45.229622 
	C14.976470,45.407562 15.041717,45.585503 15.106962,45.763443 
	C15.170960,45.586418 15.234959,45.409397 14.911223,45.229622 
M164.363647,22.480167 
	C164.363647,22.480167 164.531586,22.572502 164.531586,22.572502 
	C164.531586,22.572502 164.505768,22.390738 164.363647,22.480167 
z"/>
<path fill="#1A1A1A" opacity="1.000000" stroke="none" 
	d="
M66.272957,39.992996 
	C66.272957,34.163570 66.272957,28.334143 66.272957,22.205980 
	C68.112549,22.205980 70.154015,22.205980 72.393341,22.205980 
	C72.393341,34.420845 72.393341,46.469486 72.393341,58.804771 
	C70.515358,58.804771 68.779892,58.804771 66.418793,58.804771 
	C66.418793,53.604744 66.418793,48.382080 66.564041,42.442566 
	C66.563843,41.148140 66.418396,40.570568 66.272957,39.992996 
z"/>
<path fill="#0F0F0F" opacity="1.000000" stroke="none" 
	d="
M140.649323,38.980305 
	C140.696609,35.956482 140.743896,32.932663 140.837341,29.082039 
	C140.846375,27.165365 140.809235,26.075491 140.772095,24.985617 
	C140.772110,19.059845 140.772110,13.134072 140.772110,7.008280 
	C143.057617,7.008280 144.669266,7.008280 147.045731,7.008280 
	C147.045731,19.325382 147.045731,31.682861 147.068329,44.741695 
	C147.023773,45.609077 146.956604,45.775101 146.889450,45.941124 
	C144.916809,45.229412 141.709091,47.994438 140.974319,43.028534 
	C140.874756,41.141384 140.762039,40.060844 140.649323,38.980305 
z"/>
<path fill="#151515" opacity="1.000000" stroke="none" 
	d="
M39.902702,40.852791 
	C39.902699,42.786400 39.902699,44.239128 39.902699,45.853420 
	C37.505432,45.853420 35.567062,45.853420 32.684799,45.853420 
	C32.684799,38.001774 32.684799,30.183418 32.684799,22.284285 
	C37.755547,21.543427 39.700771,23.050055 39.877541,28.919462 
	C39.992424,32.733738 39.901451,36.554214 39.902702,40.852791 
z"/>
<path fill="#121212" opacity="1.000000" stroke="none" 
	d="
M193.875839,32.941647 
	C195.533508,37.596138 198.682114,41.891666 193.308640,46.655903 
	C189.898407,38.450386 186.576904,30.458355 183.120087,22.140755 
	C185.456055,22.140755 187.409241,22.140755 189.762039,22.140755 
	C191.052338,25.517462 192.400269,29.044947 193.875839,32.941647 
z"/>
<path fill="#121212" opacity="1.000000" stroke="none" 
	d="
M126.633148,44.488380 
	C121.337280,40.063782 120.690811,34.646271 122.559456,28.901018 
	C123.843475,24.953205 126.569908,22.161907 131.493439,21.898029 
	C127.615768,30.054066 127.418701,37.913280 131.905869,46.439114 
	C129.878479,45.741280 128.398468,45.231857 126.633148,44.488380 
z"/>
<path fill="#111111" opacity="1.000000" stroke="none" 
	d="
M90.957375,30.923382 
	C92.610786,36.169853 96.349113,40.928726 91.255737,46.859802 
	C87.762398,38.490768 84.441803,30.535568 80.963188,22.201813 
	C83.254684,22.201813 85.164482,22.201813 87.589165,22.201813 
	C88.594650,24.785246 89.716354,27.667295 90.957375,30.923382 
z"/>
<path fill="#0E0E0E" opacity="1.000000" stroke="none" 
	d="
M54.456356,39.142731 
	C55.266659,41.553162 55.988911,43.551079 56.690090,45.490704 
	C51.738739,45.683342 47.877617,41.723042 47.225258,35.529549 
	C46.477596,28.431202 50.122368,23.108437 55.510540,22.264248 
	C55.137833,27.637028 54.753071,33.183624 54.456356,39.142731 
z"/>
<path fill="#0B0B0B" opacity="1.000000" stroke="none" 
	d="
M17.824482,41.908905 
	C17.824594,35.140003 17.824594,28.858007 17.824594,22.148102 
	C19.700588,22.063524 21.437252,21.985229 23.575104,21.888849 
	C23.575104,29.830675 23.575104,37.532887 23.575104,45.628365 
	C21.910746,45.628365 20.055201,45.628365 17.824371,45.628365 
	C17.824371,44.598995 17.824371,43.497402 17.824482,41.908905 
z"/>
<path fill="#131313" opacity="1.000000" stroke="none" 
	d="
M161.225525,33.027325 
	C161.806091,37.279018 162.386673,41.530712 162.938828,45.574261 
	C157.779282,44.684608 154.422607,40.809093 154.129791,34.611710 
	C153.834702,28.366154 156.591919,24.191357 162.460770,22.557701 
	C161.975342,25.544899 161.518768,28.354614 161.093750,31.826096 
	C161.158722,32.667679 161.192108,32.847500 161.225525,33.027325 
z"/>
<path fill="#111111" opacity="1.000000" stroke="none" 
	d="
M112.310059,38.622581 
	C114.089821,39.978672 115.747459,41.282501 116.760864,42.972622 
	C116.974625,43.329098 114.959587,45.790779 113.730278,46.026970 
	C112.507156,46.261974 109.733940,44.720280 109.800484,44.298355 
	C110.104744,42.369411 111.167915,40.560165 112.310059,38.622581 
z"/>
<path fill="#0D0D0D" opacity="1.000000" stroke="none" 
	d="
M170.783203,29.445976 
	C170.137863,26.756983 169.522079,24.507711 168.937866,22.373766 
	C173.841324,22.207354 176.423706,24.881172 177.157318,31.932737 
	C174.939835,31.230881 171.848907,34.613258 170.783203,29.445976 
z"/>
<path fill="#E7E7E7" opacity="1.000000" stroke="none" 
	d="
M161.652954,33.047638 
	C161.192108,32.847500 161.158722,32.667679 161.210510,32.227081 
	C163.878174,31.966297 166.460648,31.966297 169.043121,31.966297 
	C169.049835,32.333515 169.056549,32.700733 169.063263,33.067951 
	C166.735641,33.067951 164.408005,33.067951 161.652954,33.047638 
z"/>
<path fill="#F2F2F2" opacity="1.000000" stroke="none" 
	d="
M137.966812,24.041220 
	C136.568176,23.612816 135.169556,23.184414 133.770920,22.756010 
	C133.933243,22.329830 134.095581,21.903650 134.257904,21.477470 
	C135.483078,22.096581 136.708237,22.715691 137.967834,23.667679 
	C138.002274,24.000557 137.966812,24.041220 137.966812,24.041220 
z"/>
<path fill="#F2F2F2" opacity="1.000000" stroke="none" 
	d="
M140.489349,24.969542 
	C140.809235,26.075491 140.846375,27.165365 140.733246,28.639442 
	C140.033737,27.940962 139.484497,26.858278 138.963928,25.387093 
	C138.992599,24.998594 139.074829,24.906944 139.074829,24.906944 
	C139.452087,24.922453 139.829330,24.937960 140.489349,24.969542 
z"/>
<path fill="#F2F2F2" opacity="1.000000" stroke="none" 
	d="
M140.324524,39.063404 
	C140.762039,40.060844 140.874756,41.141384 140.878571,42.618324 
	C140.401398,43.032600 140.033081,43.050476 139.327545,43.028042 
	C138.990311,42.987732 138.870438,42.861603 138.870438,42.861603 
	C139.246872,41.623238 139.623306,40.384869 140.324524,39.063404 
z"/>
<path fill="#F8F8F8" opacity="1.000000" stroke="none" 
	d="
M59.999599,21.258274 
	C60.574234,21.722042 60.855865,22.188080 61.137497,22.654118 
	C60.377815,22.654837 59.618137,22.655558 58.858456,22.656277 
	C59.141167,22.191031 59.423882,21.725786 59.999599,21.258274 
z"/>
<path fill="#F2F2F2" opacity="1.000000" stroke="none" 
	d="
M139.051804,43.049274 
	C138.434769,43.941689 137.756241,44.772560 137.077713,45.603428 
	C136.787399,45.328724 136.497086,45.054016 136.206772,44.779312 
	C136.895569,44.184860 137.584351,43.590405 138.571793,42.928780 
	C138.870438,42.861603 138.990311,42.987732 139.051804,43.049274 
z"/>
<path fill="#D6D6D6" opacity="1.000000" stroke="none" 
	d="
M147.232574,45.993370 
	C146.956604,45.775101 147.023773,45.609077 147.188477,45.192741 
	C148.196762,44.998505 149.107513,45.054577 150.018265,45.110649 
	C150.027756,45.332924 150.037247,45.555199 150.046738,45.777477 
	C149.223068,45.866856 148.399384,45.956234 147.232574,45.993370 
z"/>
<path fill="#9C9C9C" opacity="1.000000" stroke="none" 
	d="
M66.002106,40.142052 
	C66.418396,40.570568 66.563843,41.148140 66.538765,41.993252 
	C66.069275,42.109779 65.770302,41.958771 65.238663,41.903431 
	C65.005997,41.999100 65.035927,42.016048 65.035927,42.016048 
	C65.267700,41.441067 65.499474,40.866085 66.002106,40.142052 
z"/>
<path fill="#F2F2F2" opacity="1.000000" stroke="none" 
	d="
M139.170685,6.345503 
	C138.884628,6.643414 138.455444,6.768478 138.017334,6.832489 
	C137.941788,6.843528 137.828354,6.595272 137.732437,6.466785 
	C138.163132,6.361856 138.593842,6.256930 139.170685,6.345503 
z"/>
<path fill="#9C9C9C" opacity="1.000000" stroke="none" 
	d="
M63.185089,44.412361 
	C63.125999,44.576515 62.985794,44.627762 62.845589,44.679008 
	C62.931717,44.552490 63.017845,44.425968 63.185089,44.412361 
z"/>
<path fill="#C2C2C2" opacity="1.000000" stroke="none" 
	d="
M15.105090,45.230995 
	C15.234959,45.409397 15.170960,45.586418 15.106962,45.763443 
	C15.041717,45.585503 14.976470,45.407562 15.105090,45.230995 
z"/>
<path fill="#9C9C9C" opacity="1.000000" stroke="none" 
	d="
M64.998001,41.984112 
	C64.990005,41.969124 64.758186,42.379013 64.758186,42.379013 
	C64.758186,42.379013 64.823601,42.159397 64.929764,42.087723 
	C65.035927,42.016048 65.005997,41.999100 64.998001,41.984112 
z"/>
<path fill="#F2F2F2" opacity="1.000000" stroke="none" 
	d="
M138.022614,23.982836 
	C138.364716,24.052998 138.627899,24.228647 138.953644,24.699501 
	C139.074829,24.906944 138.992599,24.998594 138.945740,25.040245 
	C138.591446,24.957253 138.346130,24.756662 138.064865,24.260672 
	C137.966812,24.041220 138.002274,24.000557 138.022614,23.982836 
z"/>
<path fill="#E7E7E7" opacity="1.000000" stroke="none" 
	d="
M164.434708,22.435452 
	C164.505768,22.390738 164.531586,22.572502 164.531586,22.572502 
	C164.531586,22.572502 164.363647,22.480167 164.434708,22.435452 
z"/>
</svg>