<!--?xml version="1.0" standalone="no"?-->
              <svg id="sw-js-blob-svg" viewBox="0 0 100 100" xmlns="http://www.w3.org/2000/svg" version="1.1">
                    <defs> 
                        <linearGradient id="sw-gradient" x1="0" x2="1" y1="1" y2="0">
                            <stop id="stop1" stop-color="rgba(248, 117, 55, 1)" offset="0%"></stop>
                            <stop id="stop2" stop-color="rgba(251, 168, 31, 1)" offset="100%"></stop>
                        </linearGradient>
                    </defs>
                <path fill="url(#sw-gradient)" d="M26,-32.3C31.4,-26.4,32,-16.1,31.7,-7.2C31.4,1.7,30.2,9.2,27.2,17.1C24.3,25,19.7,33.3,12.6,37C5.4,40.6,-4.3,39.6,-11.3,35.2C-18.2,30.8,-22.3,23.1,-25.4,15.7C-28.4,8.3,-30.4,1.3,-29.5,-5.5C-28.6,-12.3,-25,-18.8,-19.6,-24.8C-14.2,-30.7,-7.1,-36,1.6,-37.9C10.3,-39.8,20.5,-38.2,26,-32.3Z" width="100%" height="100%" transform="translate(50 50)" stroke-width="0" style="transition: all 0.3s ease 0s;"></path>
              </svg>